# xmcd
#
# Track frame offsets:
#   150
#   10085
#   21922
#   32637
#   45432
#   56672
#   68462
#   81587
#   91725
#   101727
#   113892
#   124775
#
# Disc length: 1824 seconds
#
# Revision: 6
# Processed by: cddbd v1.4PL0 Copyright (c) Steve Scherf et al.
# Submitted via: ACDR v3.2
#
DISCID=91071e0c
DTITLE=Patsy Cline - The Millennium Collection
DYEAR=1900
DGENRE=Country
TTITLE0=Heartaches
TTITLE1=A Poor Man's Roses
TTITLE2=Your Cheatin' Heart
TTITLE3=When You Need A Laugh
TTITLE4=Half As Much
TTITLE5=When I Get Thru With You (You'll Love Me Too)
TTITLE6=Imagine That
TTITLE7=I Love You So Much It Hurts
TTITLE8=Have You Ever Been Lonely (Have You Ever Been Blue)
TTITLE9=He Called Me Baby
TTITLE10=Crazy Arms
TTITLE11=Always
EXTD=
EXTT0=
EXTT1=
EXTT2=
EXTT3=
EXTT4=
EXTT5=
EXTT6=
EXTT7=
EXTT8=
EXTT9=
EXTT10=
EXTT11=
PLAYORDER=
